<?xml version="1.0" standalone="no"?>
<!DOCTYPE svg PUBLIC "-//W3C//DTD SVG 20010904//EN"
 "http://www.w3.org/TR/2001/REC-SVG-20010904/DTD/svg10.dtd">
<svg version="1.0" xmlns="http://www.w3.org/2000/svg"
 width="256.000000pt" height="197.000000pt" viewBox="0 0 256.000000 197.000000"
 preserveAspectRatio="xMidYMid meet">

<g transform="translate(0.000000,197.000000) scale(0.100000,-0.100000)"
fill="#000000" stroke="none">
<path d="M2310 1953 c-14 -2 -209 -29 -435 -59 -807 -108 -1000 -135 -1018
-140 -37 -11 -39 -37 -13 -236 14 -105 24 -194 21 -196 -2 -3 -55 -18 -117
-34 -129 -33 -147 -43 -189 -101 -58 -79 -319 -536 -319 -559 0 -3 79 -101
175 -217 l174 -210 53 15 c71 22 175 83 228 136 63 63 124 162 192 311 67 150
96 186 208 258 115 74 119 77 140 119 22 44 26 119 8 153 -18 35 -40 46 -88
47 -78 0 -154 -45 -280 -165 -89 -85 -128 -114 -184 -140 -146 -67 -206 -79
-206 -41 0 9 21 21 53 32 124 40 266 121 281 159 4 12 -26 264 -49 396 -3 23
0 28 25 32 50 10 90 56 104 117 l12 54 300 42 c655 93 807 114 808 112 1 -2
11 -23 24 -49 26 -52 62 -77 116 -81 43 -3 38 12 66 -198 11 -85 23 -167 26
-182 5 -24 1 -29 -40 -46 -53 -24 -77 -57 -83 -116 -5 -40 -8 -45 -37 -50 -17
-3 -179 -26 -361 -51 -499 -69 -453 -59 -494 -99 -20 -18 -61 -49 -91 -67 -88
-52 -139 -97 -170 -152 -17 -29 -30 -58 -30 -64 0 -35 126 16 185 75 31 31 55
83 55 119 0 14 9 15 640 103 278 39 515 75 528 80 17 8 22 18 22 49 0 65 -110
824 -122 838 -10 12 -63 15 -118 6z"/>
<path d="M1585 1737 c-59 -23 -103 -58 -139 -110 -97 -141 -82 -343 35 -471
148 -162 383 -126 478 74 23 49 26 67 26 165 0 104 -2 113 -32 170 -38 72
-102 137 -163 164 -51 23 -155 27 -205 8z m113 -115 c3 -16 11 -22 40 -24 35
-3 37 -5 37 -38 l0 -35 -61 -6 c-70 -7 -84 -13 -84 -39 0 -15 13 -23 58 -36
31 -9 70 -23 85 -31 34 -17 67 -69 67 -105 0 -29 -40 -84 -68 -92 -12 -4 -17
-16 -17 -38 0 -31 -2 -33 -37 -36 -35 -3 -38 -1 -38 22 0 24 -4 26 -43 26 -51
0 -65 11 -59 49 4 28 6 28 79 34 137 10 139 55 4 96 -82 25 -111 54 -111 111
0 40 28 85 59 95 13 4 16 13 13 34 -4 26 -1 30 24 34 42 6 49 3 52 -21z"/>
<path d="M2162 1508 c-20 -20 -14 -66 9 -79 33 -17 69 3 69 39 0 33 -16 52
-45 52 -12 0 -26 -5 -33 -12z"/>
<path d="M1146 1364 c-30 -30 -9 -84 33 -84 21 0 51 30 51 52 0 19 -32 48 -53
48 -8 0 -23 -7 -31 -16z"/>
<path d="M1269 671 c-45 -34 -88 -51 -133 -51 -35 0 -48 -5 -56 -19 -16 -31
-12 -41 18 -41 83 0 181 55 195 110 6 25 6 25 -24 1z"/>
<path d="M100 599 c-73 -60 -90 -81 -90 -107 0 -21 44 -82 183 -252 100 -124
191 -226 201 -228 9 -2 27 -1 39 2 33 8 127 100 127 123 0 16 -242 325 -356
456 -29 33 -68 35 -104 6z"/>
<path d="M1190 529 c-25 -10 -70 -18 -101 -18 -42 -1 -58 -5 -63 -17 -9 -24 2
-34 40 -34 60 0 121 21 150 51 15 16 26 30 23 32 -2 2 -24 -4 -49 -14z"/>
</g>
</svg>
